Sins Expiation 2012 x264 XViD-SSDD


IMDB Link: http://www.imdb.com/title/tt2182241/


Source - Sins Expiation (2012) (Thumbs Up + Respect)


NOTES - Source didnt state their source so i dont know what to tag this, so i havent tagged it at all so not to mislead anyone, see screens and OMG did this require some sharpening to get it to look good.


SSDD - Small Sized Decent Downloads


General
Complete name                            : Sins Expiation 2012 x264-SSDD.mp4
Format                                   : MPEG-4
Format profile                           : Base Media
Codec ID                                 : isom
File size                                : 400 MiB
Duration                                 : 1h 17mn
Overall bit rate mode                    : Variable
Overall bit rate                         : 720 Kbps

Video
ID                                       : 1
Format                                   : AVC
Format/Info                              : Advanced Video Codec
Format profile                           : High@L4.1
Format settings, CABAC                   : Yes
Format settings, ReFrames                : 4 frames
Codec ID                                 : avc1
Codec ID/Info                            : Advanced Video Coding
Duration                                 : 1h 17mn
Bit rate                                 : 666 Kbps
Maximum bit rate                         : 1 856 Kbps
Width                                    : 720 pixels
Height                                   : 404 pixels
Display aspect ratio                     : 16:9
Frame rate mode                          : Constant
Frame rate                               : 29.970 fps
Color space                              : YUV
Chroma subsampling                       : 4:2:0
Bit depth                                : 8 bits
Scan type                                : Progressive
Bits/(Pixel*Frame)                       : 0.076
Stream size                              : 370 MiB (92%)
Writing library                          : x264 core 129 r2245 bc13772

Audio
ID                                       : 2
Format                                   : AAC
Format/Info                              : Advanced Audio Codec
Format profile                           : LC
Codec ID                                 : 40
Duration                                 : 1h 17mn
Bit rate mode                            : Variable
Bit rate                                 : 48.0 Kbps
Maximum bit rate                         : 58.3 Kbps
Channel(s)                               : 2 channels
Channel positions                        : Front: L R
Sampling rate                            : 48.0 KHz
Compression mode                         : Lossy
Stream size                              : 27.8 MiB (7%)


Poster:

 
http://i.imgur.com/HbEcWCY.jpg


Screenshots:

 
http://i.imgur.com/aAqyhkA.png

 
http://i.imgur.com/IHDQa9B.png

 
http://i.imgur.com/QsIRXPP.png


SEED AND ENJOY!